<svg width="40" height="40" viewBox="0 0 40 40" fill="none" xmlns="http://www.w3.org/2000/svg">
<path d="M20 39.4141C30.7221 39.4141 39.4141 30.7221 39.4141 20C39.4141 9.27791 30.7221 0.585938 20 0.585938C9.27791 0.585938 0.585938 9.27791 0.585938 20C0.585938 30.7221 9.27791 39.4141 20 39.4141Z" fill="#A5CDFF"/>
<path d="M24.2205 35.1936C13.4984 35.1936 4.80641 26.5016 4.80641 15.7795C4.80641 11.4955 6.19703 7.53773 8.54734 4.3268C3.72195 7.85883 0.585938 13.562 0.585938 20C0.585938 30.722 9.27789 39.4141 20 39.4141C26.438 39.4141 32.141 36.278 35.673 31.4527C32.4621 33.803 28.5045 35.1936 24.2205 35.1936Z" fill="#8CB4EB"/>
<path d="M33.111 26.2626H6.88901C5.82908 26.2626 4.96979 25.4034 4.96979 24.3434V15.6566C4.96979 14.5966 5.82901 13.7373 6.88901 13.7373H33.1111C34.171 13.7373 35.0303 14.5966 35.0303 15.6566V24.3434C35.0303 25.4034 34.171 26.2626 33.111 26.2626Z" fill="white"/>
<path d="M34.9898 24.3838H16.8687C11.3347 24.3838 6.84849 19.8977 6.84849 14.3637V13.7778C6.84849 13.7652 6.85201 13.7536 6.85217 13.7411C5.80959 13.7612 4.96967 14.6092 4.96967 15.6566V24.3434C4.96967 25.4034 5.82888 26.2627 6.88888 26.2627H33.111C34.1583 26.2627 35.0064 25.4227 35.0265 24.3802C35.014 24.3803 35.0024 24.3838 34.9898 24.3838Z" fill="#EDEBED"/>
<path d="M34.1422 5.85781C30.3646 2.08039 25.3422 0 20 0C14.6578 0 9.63539 2.08039 5.85781 5.85781C2.08039 9.63539 0 14.6578 0 20C0 25.3422 2.08039 30.3646 5.85781 34.1422C9.63539 37.9196 14.6578 40 20 40C25.3422 40 30.3646 37.9196 34.1422 34.1422C37.9196 30.3646 40 25.3422 40 20C40 14.6578 37.9196 9.63539 34.1422 5.85781ZM34.7095 31.7544C32.9237 31.0032 31.0935 30.3943 29.2266 29.9293C29.5201 28.9509 29.7705 27.9214 29.9752 26.8485H33.111C34.4923 26.8485 35.6162 25.7248 35.6162 24.3434V20.5859H38.8181C38.6934 24.6956 37.2571 28.5788 34.7095 31.7544ZM1.1818 20.5859H4.38375V24.3434C4.38375 25.7248 5.50758 26.8485 6.88891 26.8485H10.0262C10.2301 27.9155 10.4793 28.946 10.7749 29.9289C8.90742 30.394 7.0768 31.003 5.29031 31.7544C2.74289 28.5788 1.30664 24.6956 1.1818 20.5859ZM5.29203 8.24367C7.07758 8.995 8.90734 9.60406 10.7738 10.0692C10.4802 11.048 10.2295 12.078 10.0248 13.1515H6.88898C5.50766 13.1515 4.38383 14.2752 4.38383 15.6566V19.4141H1.1818C1.30664 15.3035 2.74344 11.4196 5.29203 8.24367ZM34.4443 24.3434C34.4443 25.0786 33.8462 25.6766 33.111 25.6766H6.88898C6.15383 25.6766 5.5557 25.0786 5.5557 24.3434V15.6566C5.5557 14.9214 6.15383 14.3234 6.88898 14.3234H33.1111C33.8462 14.3234 34.4444 14.9214 34.4444 15.6566V24.3434H34.4443ZM20.5859 13.1515V11.1873C23.1328 11.1499 25.6366 10.8659 28.0809 10.3386C28.3538 11.237 28.5882 12.1765 28.7815 13.1515H20.5859ZM19.4141 1.20922V10.0151C16.9945 9.97766 14.6153 9.71047 12.2915 9.2168C12.9181 7.45156 13.6962 5.88906 14.5874 4.63219C16.03 2.59766 17.6879 1.42578 19.4141 1.20922ZM19.4141 11.1871V13.1515H11.2185C11.4122 12.1777 11.6487 11.2358 11.9227 10.3367C14.3658 10.8644 16.8684 11.1489 19.4141 11.1871ZM11.2185 26.8485H19.4141V28.8128C16.8673 28.8506 14.3637 29.1349 11.9196 29.6626C11.6465 28.7639 11.4119 27.8239 11.2185 26.8485ZM20.5859 38.7908V29.9848C23.0057 30.0219 25.385 30.2888 27.709 30.782C27.0823 32.5478 26.3041 34.1107 25.4126 35.3679C23.97 37.4023 22.3121 38.5742 20.5859 38.7908ZM20.5859 28.8128V26.8485H28.7816C28.588 27.8219 28.3516 28.7634 28.0778 29.662C25.6345 29.1347 23.1317 28.8506 20.5859 28.8128ZM35.6162 19.4141V15.6566C35.6162 14.2752 34.4923 13.1515 33.111 13.1515H29.9737C29.7699 12.0849 29.5208 11.0551 29.2252 10.0726C31.0932 9.60781 32.9243 8.99891 34.7111 8.24766C37.2577 11.4228 38.6934 15.3052 38.8181 19.4141H35.6162ZM33.3135 6.68648C33.5178 6.89078 33.7162 7.09938 33.9098 7.31117C32.2631 7.98375 30.5783 8.53266 28.8612 8.95563C28.7578 8.65922 28.6517 8.36578 28.5398 8.0793C28.422 7.77789 28.0821 7.62891 27.7808 7.7468C27.4794 7.86453 27.3305 8.20438 27.4483 8.50578C27.5396 8.73945 27.6271 8.97773 27.7125 9.21852C25.3874 9.7118 23.007 9.97852 20.5861 10.0152V1.21C22.7248 1.48008 24.762 3.22195 26.3762 6.18531C26.531 6.46945 26.8868 6.5743 27.1711 6.41953C27.4552 6.26477 27.5602 5.90891 27.4054 5.62469C26.4856 3.93625 25.424 2.60141 24.2697 1.65633C27.6675 2.44039 30.7865 4.15953 33.3135 6.68648ZM15.7266 1.65727C14.9886 2.26328 14.2865 3.03055 13.6316 3.95422C12.6425 5.34906 11.8021 7.0375 11.1355 8.95172C9.42078 8.52844 7.73828 7.97977 6.09375 7.3075C6.28633 7.09695 6.48352 6.88961 6.68656 6.68656C9.2125 4.16055 12.3301 2.44172 15.7266 1.65727ZM6.68648 33.3135C6.48281 33.1098 6.28508 32.9019 6.09195 32.6907C7.73828 32.018 9.42266 31.4691 11.1393 31.0458C11.2401 31.3348 11.3434 31.6209 11.4523 31.9003C11.5427 32.132 11.764 32.2736 11.9984 32.2736C12.0692 32.2736 12.1412 32.2607 12.2111 32.2334C12.5126 32.1159 12.6618 31.7763 12.5443 31.4748C12.4558 31.2477 12.3709 31.0164 12.2879 30.7827C14.6129 30.289 16.9932 30.0219 19.414 29.9848V38.79C17.2767 38.5201 15.2406 36.7802 13.627 33.8204C13.4721 33.5363 13.1162 33.4315 12.832 33.5864C12.5479 33.7413 12.4431 34.0972 12.598 34.3813C13.517 36.067 14.5776 37.3998 15.7306 38.3437C12.3326 37.5597 9.21352 35.8405 6.68648 33.3135ZM24.2734 38.3427C25.0114 37.7367 25.7135 36.9695 26.3685 36.0457C27.3578 34.6505 28.1984 32.9616 28.865 31.0468C30.5802 31.4699 32.2631 32.0185 33.908 32.6906C33.7149 32.9018 33.5172 33.1098 33.3135 33.3134C30.7875 35.8395 27.6699 37.5583 24.2734 38.3427Z" fill="black"/>
<path d="M18.4734 18.0809C18.797 18.0809 19.0593 17.8186 19.0593 17.495C19.0593 17.1714 18.797 16.9091 18.4734 16.9091H14.7158C14.3922 16.9091 14.1299 17.1714 14.1299 17.495V22.5051C14.1299 22.8287 14.3922 23.091 14.7158 23.091H18.4734C18.797 23.091 19.0593 22.8287 19.0593 22.5051C19.0593 22.1815 18.797 21.9191 18.4734 21.9191H15.3018V20.5859H18.0037C18.3273 20.5859 18.5896 20.3236 18.5896 20C18.5896 19.6764 18.3273 19.4141 18.0037 19.4141H15.3018V18.0809H18.4734Z" fill="black"/>
<path d="M12.3674 16.9091C12.0439 16.9091 11.7815 17.1714 11.7815 17.495V20.7473L9.07861 17.1434C8.92729 16.9416 8.66369 16.8595 8.42455 16.9391C8.18533 17.0189 8.02393 17.2428 8.02393 17.495V22.5051C8.02393 22.8287 8.28627 23.091 8.60986 23.091C8.93346 23.091 9.1958 22.8287 9.1958 22.5051V19.2528L11.8987 22.8566C12.0115 23.007 12.1866 23.091 12.3675 23.091C12.4293 23.091 12.4918 23.0813 12.5528 23.0609C12.792 22.9812 12.9534 22.7573 12.9534 22.5051V17.495C12.9534 17.1713 12.691 16.9091 12.3674 16.9091Z" fill="black"/>
<path d="M26.2842 16.9309C25.9727 16.8434 25.6491 17.0248 25.5616 17.3363L24.7166 20.3409L23.8715 17.3363C23.8004 17.0836 23.5699 16.909 23.3074 16.909C23.0449 16.909 22.8144 17.0836 22.7434 17.3363L21.8984 20.3409L21.0534 17.3363C20.9658 17.0248 20.6424 16.8432 20.3307 16.9309C20.0192 17.0185 19.8377 17.3421 19.9253 17.6536L21.3344 22.6637C21.4055 22.9164 21.6359 23.091 21.8984 23.091C22.1609 23.091 22.3914 22.9164 22.4625 22.6637L23.3075 19.6591L24.1526 22.6637C24.2237 22.9164 24.4541 23.091 24.7166 23.091C24.9791 23.091 25.2096 22.9164 25.2807 22.6637L26.6898 17.6536C26.7773 17.3421 26.5958 17.0185 26.2842 16.9309Z" fill="black"/>
<path d="M29.9027 18.0809C30.7071 18.0809 31.1956 18.4352 31.1956 18.5909C31.1956 18.9145 31.4579 19.1769 31.7815 19.1769C32.1051 19.1769 32.3674 18.9145 32.3674 18.5909C32.3674 17.6321 31.3078 16.9091 29.9027 16.9091C28.4977 16.9091 27.438 17.6321 27.438 18.5909C27.438 19.9235 28.8269 20.3093 29.7459 20.5646C30.9584 20.9014 31.1956 21.1293 31.1956 21.4091C31.1956 21.5649 30.7072 21.9191 29.9028 21.9191C29.0984 21.9191 28.61 21.5649 28.61 21.4091C28.61 21.0855 28.3477 20.8232 28.0241 20.8232C27.7005 20.8232 27.4381 21.0855 27.4381 21.4091C27.4381 22.368 28.4977 23.091 29.9028 23.091C31.3079 23.091 32.3675 22.368 32.3675 21.4091C32.3675 20.0766 30.9787 19.6908 30.0596 19.4355C28.8471 19.0987 28.6099 18.8708 28.6099 18.5909C28.6099 18.4352 29.0983 18.0809 29.9027 18.0809Z" fill="black"/>
</svg>
